<svg width="104" height="104" viewBox="0 0 104 104" fill="none" xmlns="http://www.w3.org/2000/svg">
<path d="M10.3192 0H0V41.2766H10.3192V0ZM92.8725 0H103.192V41.2766H92.8725V0ZM61.915 30.9575H41.2766V0H10.3192V10.3192H30.9575V30.9575H10.3192V41.2766H30.9575V61.915H10.3192V72.2341H30.9575V92.8725H10.3192V103.192H41.2766V72.2341H61.915V103.192H72.2341V72.2341H92.8725V61.915H72.2341V41.2766H92.8725V30.9575H72.2341V0H61.915V30.9575ZM41.2766 61.915V41.2766H61.915V61.915H41.2766ZM92.8725 0H72.2341V10.3192H92.8725V0ZM0 61.915H10.3192V103.192H0V61.915ZM72.2341 92.8725H92.8725V103.192H72.2341V92.8725ZM103.192 61.915H92.8725V103.192H103.192V61.915Z" fill="white"/>
</svg>
