<svg width="48" height="48" viewBox="0 0 48 48" fill="none" xmlns="http://www.w3.org/2000/svg">
<path d="M27.4275 9.1425H32.0025V11.4225H34.2825V13.7175H36.5775V18.2925H38.8575V29.7075H36.5775V34.2825H34.2825V36.5775H32.0025V38.8575H27.4275V41.1375H15.9975V43.4325H32.0025V41.1375H36.5775V38.8575H38.8575V36.5775H41.1525V34.2825H43.4325V29.7075H45.7125V18.2925H43.4325V13.7175H41.1525V11.4225H38.8575V9.1425H36.5775V6.8625H32.0025V4.5675H15.9975V6.8625H27.4275V9.1425Z" fill="white"/>
<path d="M36.5775 18.2925H34.2825V29.7075H36.5775V18.2925Z" fill="white"/>
<path d="M34.2825 29.7075H32.0025V32.0025H34.2825V29.7075Z" fill="white"/>
<path d="M34.2825 15.9975H32.0025V18.2925H34.2825V15.9975Z" fill="white"/>
<path d="M32.0025 32.0025H29.7225V34.2825H32.0025V32.0025Z" fill="white"/>
<path d="M32.0025 13.7175H29.7225V15.9975H32.0025V13.7175Z" fill="white"/>
<path d="M29.7225 34.2825H27.4275V36.5775H29.7225V34.2825Z" fill="white"/>
<path d="M29.7225 11.4225H27.4275V13.7175H29.7225V11.4225Z" fill="white"/>
<path d="M27.4275 36.5775H15.9975V38.8575H27.4275V36.5775Z" fill="white"/>
<path d="M27.4275 25.1475H25.1475V29.7075H27.4275V25.1475Z" fill="white"/>
<path d="M27.4275 18.2925H25.1475V20.5725H27.4275V18.2925Z" fill="white"/>
<path d="M27.4275 9.14252H15.9975V11.4225H27.4275V9.14252Z" fill="white"/>
<path d="M20.5725 32.0025V34.2825H22.8525V32.0025H25.1475V29.7075H22.8525V25.1475H25.1475V22.8525H22.8525V18.2925H25.1475V15.9975H22.8525V13.7175H20.5725V15.9975H18.2925V18.2925H20.5725V22.8525H18.2925V25.1475H20.5725V29.7075H18.2925V32.0025H20.5725Z" fill="white"/>
<path d="M18.2925 27.4275H15.9975V29.7075H18.2925V27.4275Z" fill="white"/>
<path d="M18.2925 18.2925H15.9975V22.8525H18.2925V18.2925Z" fill="white"/>
<path d="M15.9975 38.8575H11.4375V41.1375H15.9975V38.8575Z" fill="white"/>
<path d="M15.9975 34.2825H13.7175V36.5775H15.9975V34.2825Z" fill="white"/>
<path d="M15.9975 11.4225H13.7175V13.7175H15.9975V11.4225Z" fill="white"/>
<path d="M15.9975 6.86252H11.4375V9.14252H15.9975V6.86252Z" fill="white"/>
<path d="M13.7175 32.0025H11.4375V34.2825H13.7175V32.0025Z" fill="white"/>
<path d="M13.7175 13.7175H11.4375V15.9975H13.7175V13.7175Z" fill="white"/>
<path d="M11.4375 36.5775H9.14246V38.8575H11.4375V36.5775Z" fill="white"/>
<path d="M11.4375 29.7075H9.14246V32.0025H11.4375V29.7075Z" fill="white"/>
<path d="M11.4375 15.9975H9.14246V18.2925H11.4375V15.9975Z" fill="white"/>
<path d="M11.4375 9.14252H9.14246V11.4225H11.4375V9.14252Z" fill="white"/>
<path d="M9.14249 34.2825H6.86249V36.5775H9.14249V34.2825Z" fill="white"/>
<path d="M9.14249 18.2925H6.86249V29.7075H9.14249V18.2925Z" fill="white"/>
<path d="M9.14249 11.4225H6.86249V13.7175H9.14249V11.4225Z" fill="white"/>
<path d="M6.8625 29.7075H4.5675V34.2825H6.8625V29.7075Z" fill="white"/>
<path d="M6.8625 13.7175H4.5675V18.2925H6.8625V13.7175Z" fill="white"/>
<path d="M4.56748 18.2925H2.28748V29.7075H4.56748V18.2925Z" fill="white"/>
</svg>
